<svg xmlns="http://www.w3.org/2000/svg" viewBox="0 0 548.98 94.1"><defs><style>.cls-1{fill:#fbae42;}.cls-2{fill:#fbb03b;}.cls-3{fill:#fff;}</style></defs><title>NRG Proiect - Orange Logo</title><g id="Layer_2" data-name="Layer 2"><g id="Logos"><g id="Orange_Logo" data-name="Orange Logo"><path class="cls-1" d="M0,72.43V21.3H13v7.13c2.72-5,8.82-8.54,16-8.54a20,20,0,0,1,14.17,5.53C47,29.08,49,34.34,49,41.19V72.43H35.74V44.75c0-8.16-4.31-12.66-10.78-12.66-7,0-11.73,5.34-11.73,12.94v27.4Z"/><path class="cls-1" d="M55.63,72.43V21.3H68.29v6.85a15.09,15.09,0,0,1,14.08-8.26A17.79,17.79,0,0,1,88.56,21L87.43,33.68a21.12,21.12,0,0,0-6.09-1c-7.51,0-12.48,4.88-12.48,15.48v24.3Z"/><path class="cls-1" d="M127.77,21.3H140V67.36c0,8.16-2.63,14.73-7.88,19.52S120,94.1,111.64,94.1a39,39,0,0,1-23.46-7.41l5.16-10c5.91,4,11.92,6,17.92,6,10.13,0,15.95-5.91,15.95-14.17V66c-3.94,4.41-9.19,6.57-15.76,6.57-7.51,0-13.61-2.44-18.39-7.41S85.93,54,85.93,46.35s2.53-13.89,7.51-18.86A25.25,25.25,0,0,1,112,20a20.55,20.55,0,0,1,15.76,7ZM103.29,56.85a14.49,14.49,0,0,0,20.26,0,14.35,14.35,0,0,0,4-10.41,14.17,14.17,0,1,0-28.34,0A14.07,14.07,0,0,0,103.29,56.85Z"/><path class="cls-1" d="M286.69,28.05a26.71,26.71,0,0,1,7.13,18.86,27,27,0,0,1-7.23,19,23.49,23.49,0,0,1-18,7.7,21,21,0,0,1-16.42-7.6v27.3H239.87V21.48h12.2v6.76a20.59,20.59,0,0,1,16.6-8A23.59,23.59,0,0,1,286.69,28.05ZM256,58.07a15.17,15.17,0,0,0,21.39,0A15.86,15.86,0,0,0,281.53,47a15.45,15.45,0,0,0-4.13-11A14.94,14.94,0,0,0,256,36a15.79,15.79,0,0,0-4.13,11A15.86,15.86,0,0,0,256,58.07Z"/><path class="cls-1" d="M298.79,72.43V21.48h11.72v7a15.32,15.32,0,0,1,14.17-8.35,18.68,18.68,0,0,1,6.1,1l-1,11.73a19.57,19.57,0,0,0-5.91-1C316.24,31.9,311,37,311,47.57V72.43Z"/><path class="cls-1" d="M335.75,28c5.16-5.16,11.63-7.79,19.61-7.79S369.8,22.8,374.87,28a25.67,25.67,0,0,1,7.69,18.95,26,26,0,0,1-7.69,19.14c-5.07,5.16-11.54,7.69-19.51,7.69s-14.45-2.53-19.61-7.69a26.23,26.23,0,0,1-7.6-19.14A25.94,25.94,0,0,1,335.75,28ZM366,36a14.72,14.72,0,0,0-21.21,0,15.1,15.1,0,0,0-4.31,10.88,15.2,15.2,0,0,0,4.31,11,14.75,14.75,0,0,0,21.21,0,15.16,15.16,0,0,0,4.31-11A15.06,15.06,0,0,0,366,36Z"/><path class="cls-1" d="M386,7.69A7.65,7.65,0,0,1,393.91,0a7.49,7.49,0,0,1,7.69,7.69,7.44,7.44,0,0,1-7.69,7.7A7.55,7.55,0,0,1,386,7.69Zm13.89,64.74H387.63V21.48h12.29Z"/><path class="cls-1" d="M456,51.32H417.18c1.59,7,6.84,11.73,15.57,11.73a28.76,28.76,0,0,0,16.79-5.26l4.88,8.73a36.05,36.05,0,0,1-22.14,7c-19.14,0-27.58-13.13-27.58-26.64,0-7.69,2.44-14.07,7.32-19s11.35-7.6,19.13-7.6c7.42,0,13.42,2.35,18.11,7s7.13,10.79,7.13,18.67A44.11,44.11,0,0,1,456,51.32ZM417.18,42h27.2c-1-7.13-6.19-11.54-13.23-11.54S418.77,34.9,417.18,42Z"/><path class="cls-1" d="M466,66.05c-5-5-7.51-11.35-7.51-19.14s2.53-14.17,7.6-19.14,11.63-7.51,19.7-7.51c10.42,0,19.52,5.07,23.64,14l-9.94,5.35c-3-5-7.88-8.07-13.51-8.07a14.91,14.91,0,0,0-15.29,15.39,15.13,15.13,0,0,0,4.22,11,14.31,14.31,0,0,0,10.69,4.41,15.77,15.77,0,0,0,13.7-8l9.95,5.82c-4.41,8.16-13.42,13.41-23.83,13.41C477.5,73.55,471,71,466,66.05Z"/><path class="cls-1" d="M549,69.42a25.2,25.2,0,0,1-14.73,4.23c-11.54,0-17.45-6.85-17.45-19.89v-22h-8.44V21.48H517v-18h12.1v18h17.08V31.8H529.09V53.29c0,6.1,2.44,9.19,7.41,9.19a16.42,16.42,0,0,0,8.63-2.62Z"/><polygon class="cls-2" points="214.35 43.39 197.5 65.41 186.88 79.28 181.93 79.28 185.96 53.82 165.69 50.61 165.69 50.61 182.55 28.6 193.17 14.72 198.1 14.72 194.09 40.18 194.09 40.19 214.35 43.39"/><line class="cls-2" x1="194.09" y1="40.19" x2="194.09" y2="40.18"/><path class="cls-1" d="M170.65,51.4,186,53.82l-4,25.46h-8A16.57,16.57,0,0,1,157.74,62.7V31.31a16.59,16.59,0,0,1,16.59-16.59h18.84L168.74,46.63A3,3,0,0,0,170.65,51.4Z"/><path class="cls-1" d="M222.31,31.31V62.7c0,.14,0,.29,0,.43a16.57,16.57,0,0,1-16.15,16.15H186.88L197.5,65.42l14.41-18.84a2.39,2.39,0,0,0-1.53-3.81l-16.29-2.58,4-25.47h7.61A16.59,16.59,0,0,1,222.3,30.89C222.31,31,222.31,31.17,222.31,31.31Z"/><path class="cls-3" d="M211.91,46.58,197.5,65.42,186.88,79.28h-4.95l4-25.46L170.65,51.4a3,3,0,0,1-1.91-4.77l24.43-31.91h4.93l-4,25.47,16.29,2.58A2.39,2.39,0,0,1,211.91,46.58Z"/></g></g></g></svg>